<svg width="19" height="24" viewBox="0 0 19 24" fill="none" xmlns="http://www.w3.org/2000/svg">
<path d="M16.0407 9.67725H2.98219C2.18086 9.67725 1.53125 10.3269 1.53125 11.1282V21.2848C1.53125 22.0861 2.18086 22.7357 2.98219 22.7357H16.0407C16.842 22.7357 17.4916 22.0861 17.4916 21.2848V11.1282C17.4916 10.3269 16.842 9.67725 16.0407 9.67725Z" stroke="#A0A3BD" stroke-width="1.5" stroke-linecap="round" stroke-linejoin="round"/>
<path d="M4.43115 9.67733V6.04997C4.43115 4.70313 4.96619 3.41144 5.91855 2.45908C6.87092 1.50671 8.1626 0.97168 9.50945 0.97168C10.8563 0.97168 12.148 1.50671 13.1003 2.45908C14.0527 3.41144 14.5877 4.70313 14.5877 6.04997V9.67733" stroke="#A0A3BD" stroke-width="1.5" stroke-linecap="round" stroke-linejoin="round"/>
</svg>
